<?xml version="1.0" encoding="UTF-8" standalone="no" ?>
<!DOCTYPE svg PUBLIC "-//W3C//DTD SVG 1.1//EN" "http://www.w3.org/Graphics/SVG/1.1/DTD/svg11.dtd">
<svg xmlns="http://www.w3.org/2000/svg" xmlns:xlink="http://www.w3.org/1999/xlink" version="1.1" width="50" height="50" viewBox="0 0 50 50" xml:space="preserve">
<desc>Created with Fabric.js 3.6.6</desc>
<defs>
</defs>
<g transform="matrix(0.04 0 0 0.04 26.17 25)"  >
<g style=""   >
		<g transform="matrix(1 0 0 1 -394.5 -312)"  >
<path style="stroke: none; stroke-width: 1; stroke-dasharray: none; stroke-linecap: butt; stroke-dashoffset: 0; stroke-linejoin: miter; stroke-miterlimit: 4; fill: rgb(3,3,3); fill-rule: evenodd; opacity: 1;"  transform=" translate(-117.5, -200)" d="M -0.5 -0.5 C 78.1667 -0.5 156.833 -0.5 235.5 -0.5 C 220.574 8.23906 206.574 18.4057 193.5 30 C 185.589 34.9087 178.589 40.9087 172.5 48 C 169.567 49.2709 166.901 50.9376 164.5 53 C 160 60.1667 154.167 66 147 70.5 C 135.106 83.9405 123.44 97.6071 112 111.5 C 99.2578 128.647 87.2578 146.314 76 164.5 C 49.451 213.484 28.7843 264.817 14 318.5 C 13.1696 323.143 12.5029 327.81 12 332.5 C 11.0853 333.328 10.4186 334.328 10 335.5 C 10.154 342.178 8.82067 348.511 6 354.5 C 4.10264 370.024 1.93598 385.358 -0.5 400.5 C -0.5 368.167 -0.5 335.833 -0.5 303.5 C 4.86465 286.392 10.698 269.392 17 252.5 C 16.792 248.209 18.1253 244.542 21 241.5 C 23.1937 232.922 26.1937 224.589 30 216.5 C 36.2715 203.392 42.7715 190.392 49.5 177.5 C 43.2062 172.344 36.8728 167.177 30.5 162 C 23.4674 157.361 16.9674 151.861 11 145.5 C 7.96407 140.307 4.13074 135.974 -0.5 132.5 C -0.5 88.1667 -0.5 43.8333 -0.5 -0.5 Z" stroke-linecap="round" />
</g>
		<g transform="matrix(1 0 0 1 -0.5 -0.5)"  >
<path style="stroke: none; stroke-width: 1; stroke-dasharray: none; stroke-linecap: butt; stroke-dashoffset: 0; stroke-linejoin: miter; stroke-miterlimit: 4; fill: rgb(252,252,252); fill-rule: evenodd; opacity: 1;"  transform=" translate(-511.5, -511.5)" d="M 235.5 -0.5 C 411.833 -0.5 588.167 -0.5 764.5 -0.5 C 766.366 2.27008 769.032 3.77008 772.5 4 C 791.641 17.0759 810.641 30.4092 829.5 44 C 865.718 75.2374 897.218 110.737 924 150.5 C 925.562 152.957 926.562 155.624 927 158.5 C 928 160.833 929.667 162.5 932 163.5 C 933.915 168.561 936.582 173.227 940 177.5 C 942.314 185.489 945.98 192.822 951 199.5 C 958.33 216.828 965.663 234.161 973 251.5 C 981.842 277.153 989.842 303.153 997 329.5 C 1003.22 359.758 1007.55 390.424 1010 421.5 C 1011.13 442.305 1010.3 462.972 1007.5 483.5 C 1006.11 488.269 1005.44 493.269 1005.5 498.5 C 1002.75 529.072 995.754 558.572 984.5 587 C 946.835 587.5 909.168 587.667 871.5 587.5 C 870.511 592.975 870.178 598.642 870.5 604.5 C 921.5 604.5 972.5 604.5 1023.5 604.5 C 1023.5 738.833 1023.5 873.167 1023.5 1007.5 C 1018.17 1007.5 1012.83 1007.5 1007.5 1007.5 C 1002.17 1007.5 996.833 1007.5 991.5 1007.5 C 986.167 1007.5 980.833 1007.5 975.5 1007.5 C 970.167 1007.5 964.833 1007.5 959.5 1007.5 C 954.167 1007.5 948.833 1007.5 943.5 1007.5 C 943.5 1012.83 943.5 1018.17 943.5 1023.5 C 628.833 1023.5 314.167 1023.5 -0.5 1023.5 C -0.5 883.833 -0.5 744.167 -0.5 604.5 C 84.834 604.667 170.167 604.5 255.5 604 C 256.988 602.283 258.821 601.116 261 600.5 C 262.505 596.513 262.672 592.513 261.5 588.5 C 260.041 588.567 258.708 588.234 257.5 587.5 C 178.931 586.831 100.264 586.164 21.5 585.5 C 13.1326 560.058 6.79931 534.058 2.5 507.5 C 2.36227 500.637 1.69561 493.97 0.5 487.5 C 0.794717 485.265 0.461384 483.265 -0.5 481.5 C -0.5 454.5 -0.5 427.5 -0.5 400.5 C 1.93598 385.358 4.10264 370.024 6 354.5 C 8.82067 348.511 10.154 342.178 10 335.5 C 10.4186 334.328 11.0853 333.328 12 332.5 C 12.5029 327.81 13.1696 323.143 14 318.5 C 28.7843 264.817 49.451 213.484 76 164.5 C 87.2578 146.314 99.2578 128.647 112 111.5 C 123.44 97.6071 135.106 83.9405 147 70.5 C 154.167 66 160 60.1667 164.5 53 C 166.901 50.9376 169.567 49.2709 172.5 48 C 178.589 40.9087 185.589 34.9087 193.5 30 C 206.574 18.4057 220.574 8.23906 235.5 -0.5 Z" stroke-linecap="round" />
</g>
		<g transform="matrix(1 0 0 1 382 -210.5)"  >
<path style="stroke: none; stroke-width: 1; stroke-dasharray: none; stroke-linecap: butt; stroke-dashoffset: 0; stroke-linejoin: miter; stroke-miterlimit: 4; fill: rgb(3,3,3); fill-rule: evenodd; opacity: 1;"  transform=" translate(-894, -301.5)" d="M 764.5 -0.5 C 850.833 -0.5 937.167 -0.5 1023.5 -0.5 C 1023.5 34.5 1023.5 69.5 1023.5 104.5 C 1022.05 107.68 1020.71 111.014 1019.5 114.5 C 1012.95 124.272 1005.79 133.606 998 142.5 C 985.424 154.739 971.924 165.906 957.5 176 C 961.484 181.29 964.317 187.123 966 193.5 C 968.788 195.412 970.121 198.079 970 201.5 C 972.503 204.502 974.503 207.835 976 211.5 C 991.615 248.679 1004.28 287.012 1014 326.5 C 1016.85 344.732 1020.02 362.732 1023.5 380.5 C 1023.5 422.167 1023.5 463.833 1023.5 505.5 C 1019.45 525.746 1015.12 546.08 1010.5 566.5 C 1009.23 573.144 1007.23 579.477 1004.5 585.5 C 1003.52 585.811 1002.86 586.478 1002.5 587.5 C 1008.8 588.496 1015.13 588.83 1021.5 588.5 C 1021.5 587.5 1021.5 586.5 1021.5 585.5 C 1022.17 583.833 1022.83 582.167 1023.5 580.5 C 1023.5 588.167 1023.5 595.833 1023.5 603.5 C 972.833 603.5 922.167 603.5 871.5 603.5 C 871.5 598.167 871.5 592.833 871.5 587.5 C 909.168 587.667 946.835 587.5 984.5 587 C 995.754 558.572 1002.75 529.072 1005.5 498.5 C 1006.89 493.731 1007.56 488.731 1007.5 483.5 C 1010.3 462.972 1011.13 442.305 1010 421.5 C 1007.55 390.424 1003.22 359.758 997 329.5 C 989.842 303.153 981.842 277.153 973 251.5 C 965.663 234.161 958.33 216.828 951 199.5 C 945.98 192.822 942.314 185.489 940 177.5 C 936.582 173.227 933.915 168.561 932 163.5 C 929.667 162.5 928 160.833 927 158.5 C 926.562 155.624 925.562 152.957 924 150.5 C 897.218 110.737 865.718 75.2374 829.5 44 C 810.641 30.4092 791.641 17.0759 772.5 4 C 769.032 3.77008 766.366 2.27008 764.5 -0.5 Z" stroke-linecap="round" />
</g>
		<g transform="matrix(1 0 0 1 478.5 -269.5)"  >
<path style="stroke: none; stroke-width: 1; stroke-dasharray: none; stroke-linecap: butt; stroke-dashoffset: 0; stroke-linejoin: miter; stroke-miterlimit: 4; fill: rgb(250,250,250); fill-rule: evenodd; opacity: 1;"  transform=" translate(-990.5, -242.5)" d="M 1023.5 104.5 C 1023.5 196.5 1023.5 288.5 1023.5 380.5 C 1020.02 362.732 1016.85 344.732 1014 326.5 C 1004.28 287.012 991.615 248.679 976 211.5 C 974.503 207.835 972.503 204.502 970 201.5 C 970.121 198.079 968.788 195.412 966 193.5 C 964.317 187.123 961.484 181.29 957.5 176 C 971.924 165.906 985.424 154.739 998 142.5 C 1005.79 133.606 1012.95 124.272 1019.5 114.5 C 1020.71 111.014 1022.05 107.68 1023.5 104.5 Z" stroke-linecap="round" />
</g>
		<g transform="matrix(1 0 0 1 -487.5 -294)"  >
<path style="stroke: none; stroke-width: 1; stroke-dasharray: none; stroke-linecap: butt; stroke-dashoffset: 0; stroke-linejoin: miter; stroke-miterlimit: 4; fill: rgb(250,250,250); fill-rule: evenodd; opacity: 1;"  transform=" translate(-24.5, -218)" d="M -0.5 132.5 C 4.13074 135.974 7.96407 140.307 11 145.5 C 16.9674 151.861 23.4674 157.361 30.5 162 C 36.8728 167.177 43.2062 172.344 49.5 177.5 C 42.7715 190.392 36.2715 203.392 30 216.5 C 26.1937 224.589 23.1937 232.922 21 241.5 C 18.1253 244.542 16.792 248.209 17 252.5 C 10.698 269.392 4.86465 286.392 -0.5 303.5 C -0.5 246.5 -0.5 189.5 -0.5 132.5 Z" stroke-linecap="round" />
</g>
		<g transform="matrix(1 0 0 1 -230.08 -160.27)"  >
<path style="stroke: none; stroke-width: 1; stroke-dasharray: none; stroke-linecap: butt; stroke-dashoffset: 0; stroke-linejoin: miter; stroke-miterlimit: 4; fill: rgb(3,2,2); fill-rule: evenodd; opacity: 1;"  transform=" translate(-281.91, -351.73)" d="M 254.5 548.5 C 248.322 548.844 242.322 549.511 236.5 550.5 C 215.127 551.643 195.127 547.143 176.5 537 C 171.179 532.672 165.512 528.838 159.5 525.5 C 155.855 520.021 151.355 515.354 146 511.5 C 138.608 500.818 132.442 489.484 127.5 477.5 C 127.115 471.804 125.615 466.471 123 461.5 C 118.609 435.653 117.443 409.653 119.5 383.5 C 120.947 376.246 121.78 368.913 122 361.5 C 124.247 348.755 127.081 336.088 130.5 323.5 C 137.197 303.469 144.697 283.803 153 264.5 C 157.53 258.644 161.197 252.31 164 245.5 C 170.755 235.656 177.755 225.99 185 216.5 C 203.623 194.547 225.79 177.047 251.5 164 C 260.007 160.387 268.673 157.387 277.5 155 C 307.846 150.359 337.513 153.026 366.5 163 C 373.307 166.237 379.64 170.237 385.5 175 C 400.275 183.108 411.775 194.608 420 209.5 C 421.333 210.833 422.667 212.167 424 213.5 C 447.073 257.775 451.407 304.109 437 352.5 C 433.929 359.715 431.263 367.048 429 374.5 C 423.984 381.193 419.984 388.526 417 396.5 C 387.583 431.905 358.583 467.905 330 504.5 C 308.978 526.584 283.811 541.251 254.5 548.5 Z" stroke-linecap="round" />
</g>
		<g transform="matrix(1 0 0 1 211.98 -160.02)"  >
<path style="stroke: none; stroke-width: 1; stroke-dasharray: none; stroke-linecap: butt; stroke-dashoffset: 0; stroke-linejoin: miter; stroke-miterlimit: 4; fill: rgb(3,2,2); fill-rule: evenodd; opacity: 1;"  transform=" translate(-723.98, -351.98)" d="M 686.5 152.5 C 707.719 151.328 728.219 154.328 748 161.5 C 759.058 166.945 769.892 172.779 780.5 179 C 785.268 183.769 790.601 187.769 796.5 191 C 802.667 198.5 809.5 205.333 817 211.5 C 821.21 218.386 826.21 224.719 832 230.5 C 836.887 239.929 842.554 248.929 849 257.5 C 853.058 268.709 858.058 279.375 864 289.5 C 868.138 304.029 872.804 318.362 878 332.5 C 883.622 358.667 886.789 385.167 887.5 412 C 888.142 439.771 882.975 466.271 872 491.5 C 870.416 495.675 868.082 499.341 865 502.5 C 864.667 504.167 864.333 505.833 864 507.5 C 858.282 513.762 852.449 519.929 846.5 526 C 840.221 529.946 834.221 534.279 828.5 539 C 825.216 540.125 821.883 541.125 818.5 542 C 805.813 549.436 791.979 552.602 777 551.5 C 757.594 551.286 739.094 547.119 721.5 539 C 712.741 533.446 703.741 528.113 694.5 523 C 688.446 517.069 682.279 511.235 676 505.5 C 662.243 488.087 648.91 470.42 636 452.5 C 625.667 440.167 615.333 427.833 605 415.5 C 603.622 413.787 601.955 412.453 600 411.5 C 594.913 403.659 589.58 395.992 584 388.5 C 579.101 379.491 574.768 370.157 571 360.5 C 568.466 348.698 565.466 337.031 562 325.5 C 559.352 305.032 560.019 284.698 564 264.5 C 567.259 251.388 570.926 238.388 575 225.5 C 581.43 216.973 587.096 207.973 592 198.5 C 611.939 175.614 636.772 161.114 666.5 155 C 673.298 154.055 679.965 153.222 686.5 152.5 Z" stroke-linecap="round" />
</g>
		<g transform="matrix(1 0 0 1 162 -168.63)"  >
<path style="stroke: none; stroke-width: 1; stroke-dasharray: none; stroke-linecap: butt; stroke-dashoffset: 0; stroke-linejoin: miter; stroke-miterlimit: 4; fill: rgb(247,247,247); fill-rule: evenodd; opacity: 1;"  transform=" translate(-674, -343.37)" d="M 666.5 281.5 C 682.327 280.276 695.494 285.609 706 297.5 C 728.459 329.63 727.792 361.296 704 392.5 C 682.593 410.363 661.927 409.696 642 390.5 C 637.437 383.8 633.437 376.8 630 369.5 C 621.654 343.905 625.321 320.238 641 298.5 C 646.077 293.392 651.577 288.892 657.5 285 C 660.718 284.1 663.718 282.933 666.5 281.5 Z" stroke-linecap="round" />
</g>
		<g transform="matrix(1 0 0 1 -178.87 -167.03)"  >
<path style="stroke: none; stroke-width: 1; stroke-dasharray: none; stroke-linecap: butt; stroke-dashoffset: 0; stroke-linejoin: miter; stroke-miterlimit: 4; fill: rgb(247,247,247); fill-rule: evenodd; opacity: 1;"  transform=" translate(-333.14, -344.97)" d="M 328.5 282.5 C 342.981 282.489 355.148 287.823 365 298.5 C 369.902 304.71 373.902 311.377 377 318.5 C 385.8 348.051 380.3 374.217 360.5 397 C 357.53 398.153 354.863 399.82 352.5 402 C 340.879 408.508 328.879 409.174 316.5 404 C 314.137 401.82 311.47 400.153 308.5 399 C 284 373.517 278.834 344.35 293 311.5 C 297.113 305.053 301.613 298.886 306.5 293 C 313.571 288.628 320.905 285.128 328.5 282.5 Z" stroke-linecap="round" />
</g>
		<g transform="matrix(1 0 0 1 161.94 -169.1)"  >
<path style="stroke: none; stroke-width: 1; stroke-dasharray: none; stroke-linecap: butt; stroke-dashoffset: 0; stroke-linejoin: miter; stroke-miterlimit: 4; fill: rgb(5,5,5); fill-rule: evenodd; opacity: 1;"  transform=" translate(-673.94, -342.91)" d="M 667.5 308.5 C 680.812 307.579 690.312 313.246 696 325.5 C 700.761 338.31 700.428 350.977 695 363.5 C 692.413 366.413 690.246 369.58 688.5 373 C 680.219 378.116 671.552 378.783 662.5 375 C 646.404 357.79 644.237 338.956 656 318.5 C 659.438 314.559 663.271 311.225 667.5 308.5 Z" stroke-linecap="round" />
</g>
		<g transform="matrix(1 0 0 1 -178.6 -166.61)"  >
<path style="stroke: none; stroke-width: 1; stroke-dasharray: none; stroke-linecap: butt; stroke-dashoffset: 0; stroke-linejoin: miter; stroke-miterlimit: 4; fill: rgb(6,6,6); fill-rule: evenodd; opacity: 1;"  transform=" translate(-333.4, -345.39)" d="M 325.5 310.5 C 339.768 309.046 349.935 314.713 356 327.5 C 360.312 341.386 359.312 354.719 353 367.5 C 347.802 375.873 340.302 380.206 330.5 380.5 C 317.833 375.544 310.667 366.211 309 352.5 C 305.91 334.869 311.41 320.869 325.5 310.5 Z" stroke-linecap="round" />
</g>
		<g transform="matrix(1 0 0 1 -8.92 -12)"  >
<path style="stroke: none; stroke-width: 1; stroke-dasharray: none; stroke-linecap: butt; stroke-dashoffset: 0; stroke-linejoin: miter; stroke-miterlimit: 4; fill: rgb(3,3,3); fill-rule: evenodd; opacity: 1;"  transform=" translate(-503.08, -500)" d="M 498.5 435.5 C 522.924 435.412 545.924 440.579 567.5 451 C 590.279 463.412 598.112 482.246 591 507.5 C 588.876 513.081 586.21 518.414 583 523.5 C 576.143 531.356 568.976 538.856 561.5 546 C 555.003 549.414 548.67 553.081 542.5 557 C 529.868 560.393 517.034 562.893 504 564.5 C 485.595 564.275 468.429 559.775 452.5 551 C 435.79 540.957 423.29 527.124 415 509.5 C 410.623 494.182 412.289 479.516 420 465.5 C 431.861 453.484 446.028 445.484 462.5 441.5 C 474.438 438.169 486.438 436.169 498.5 435.5 Z" stroke-linecap="round" />
</g>
		<g transform="matrix(1 0 0 1 494.5 -21)"  >
<path style="stroke: none; stroke-width: 1; stroke-dasharray: none; stroke-linecap: butt; stroke-dashoffset: 0; stroke-linejoin: miter; stroke-miterlimit: 4; fill: rgb(128,127,128); fill-rule: evenodd; opacity: 1;"  transform=" translate(-1006.5, -491)" d="M 1007.5 483.5 C 1007.56 488.731 1006.89 493.731 1005.5 498.5 C 1005.44 493.269 1006.11 488.269 1007.5 483.5 Z" stroke-linecap="round" />
</g>
		<g transform="matrix(1 0 0 1 -510.52 -14.5)"  >
<path style="stroke: none; stroke-width: 1; stroke-dasharray: none; stroke-linecap: butt; stroke-dashoffset: 0; stroke-linejoin: miter; stroke-miterlimit: 4; fill: rgb(108,107,106); fill-rule: evenodd; opacity: 1;"  transform=" translate(-1.48, -497.5)" d="M 0.5 487.5 C 1.69561 493.97 2.36227 500.637 2.5 507.5 C 0.961138 501.063 0.294471 494.396 0.5 487.5 Z" stroke-linecap="round" />
</g>
		<g transform="matrix(1 0 0 1 502 34.5)"  >
<path style="stroke: none; stroke-width: 1; stroke-dasharray: none; stroke-linecap: butt; stroke-dashoffset: 0; stroke-linejoin: miter; stroke-miterlimit: 4; fill: rgb(240,240,240); fill-rule: evenodd; opacity: 1;"  transform=" translate(-1014, -546.5)" d="M 1023.5 505.5 C 1023.5 530.5 1023.5 555.5 1023.5 580.5 C 1022.83 582.167 1022.17 583.833 1021.5 585.5 C 1018.77 586.73 1015.77 587.396 1012.5 587.5 C 1009.41 587.478 1006.74 586.812 1004.5 585.5 C 1007.23 579.477 1009.23 573.144 1010.5 566.5 C 1015.12 546.08 1019.45 525.746 1023.5 505.5 Z" stroke-linecap="round" />
</g>
		<g transform="matrix(1 0 0 1 -266.5 37.56)"  >
<path style="stroke: none; stroke-width: 1; stroke-dasharray: none; stroke-linecap: butt; stroke-dashoffset: 0; stroke-linejoin: miter; stroke-miterlimit: 4; fill: rgb(118,118,118); fill-rule: evenodd; opacity: 1;"  transform=" translate(-245.5, -549.56)" d="M 254.5 548.5 C 248.762 550.228 242.762 550.895 236.5 550.5 C 242.322 549.511 248.322 548.844 254.5 548.5 Z" stroke-linecap="round" />
</g>
		<g transform="matrix(1 0 0 1 -510.5 68.54)"  >
<path style="stroke: none; stroke-width: 1; stroke-dasharray: none; stroke-linecap: butt; stroke-dashoffset: 0; stroke-linejoin: miter; stroke-miterlimit: 4; fill: rgb(219,220,220); fill-rule: evenodd; opacity: 1;"  transform=" translate(-1.5, -580.54)" d="M -0.5 574.5 C 0.728982 578.144 2.06232 581.811 3.5 585.5 C 2.31116 586.429 0.977822 586.762 -0.5 586.5 C -0.5 582.5 -0.5 578.5 -0.5 574.5 Z" stroke-linecap="round" />
</g>
		<g transform="matrix(1 0 0 1 -372.5 74.62)"  >
<path style="stroke: none; stroke-width: 1; stroke-dasharray: none; stroke-linecap: butt; stroke-dashoffset: 0; stroke-linejoin: miter; stroke-miterlimit: 4; fill: rgb(126,126,125); fill-rule: evenodd; opacity: 1;"  transform=" translate(-139.5, -586.62)" d="M 21.5 585.5 C 100.264 586.164 178.931 586.831 257.5 587.5 C 178.493 588.164 99.8263 587.497 21.5 585.5 Z" stroke-linecap="round" />
</g>
		<g transform="matrix(1 0 0 1 -381.12 31.03)"  >
<path style="stroke: none; stroke-width: 1; stroke-dasharray: none; stroke-linecap: butt; stroke-dashoffset: 0; stroke-linejoin: miter; stroke-miterlimit: 4; fill: rgb(11,10,10); fill-rule: evenodd; opacity: 1;"  transform=" translate(-130.88, -543.03)" d="M -0.5 481.5 C 0.461384 483.265 0.794717 485.265 0.5 487.5 C 0.294471 494.396 0.961138 501.063 2.5 507.5 C 6.79931 534.058 13.1326 560.058 21.5 585.5 C 99.8263 587.497 178.493 588.164 257.5 587.5 C 258.708 588.234 260.041 588.567 261.5 588.5 C 262.672 592.513 262.505 596.513 261 600.5 C 258.821 601.116 256.988 602.283 255.5 604 C 170.167 604.5 84.834 604.667 -0.5 604.5 C -0.5 598.5 -0.5 592.5 -0.5 586.5 C 0.977822 586.762 2.31116 586.429 3.5 585.5 C 2.06232 581.811 0.728982 578.144 -0.5 574.5 C -0.5 543.5 -0.5 512.5 -0.5 481.5 Z" stroke-linecap="round" />
</g>
		<g transform="matrix(1 0 0 1 500 75.06)"  >
<path style="stroke: none; stroke-width: 1; stroke-dasharray: none; stroke-linecap: butt; stroke-dashoffset: 0; stroke-linejoin: miter; stroke-miterlimit: 4; fill: rgb(123,123,122); fill-rule: evenodd; opacity: 1;"  transform=" translate(-1012, -587.06)" d="M 1004.5 585.5 C 1006.74 586.812 1009.41 587.478 1012.5 587.5 C 1015.77 587.396 1018.77 586.73 1021.5 585.5 C 1021.5 586.5 1021.5 587.5 1021.5 588.5 C 1015.13 588.83 1008.8 588.496 1002.5 587.5 C 1002.86 586.478 1003.52 585.811 1004.5 585.5 Z" stroke-linecap="round" />
</g>
		<g transform="matrix(1 0 0 1 -8.5 114.11)"  >
<path style="stroke: none; stroke-width: 1; stroke-dasharray: none; stroke-linecap: butt; stroke-dashoffset: 0; stroke-linejoin: miter; stroke-miterlimit: 4; fill: rgb(13,12,12); fill-rule: evenodd; opacity: 1;"  transform=" translate(-503.5, -626.12)" d="M 563.5 637.5 C 571.984 638.493 580.651 638.826 589.5 638.5 C 589.5 643.833 589.5 649.167 589.5 654.5 C 571.379 657.055 553.713 655.222 536.5 649 C 531.259 645.811 525.925 642.811 520.5 640 C 515.517 635.086 510.517 630.086 505.5 625 C 504.391 624.362 503.225 623.862 502 623.5 C 497.62 628.41 493.12 633.243 488.5 638 C 474.971 647.521 459.971 653.187 443.5 655 C 434.84 655.5 426.173 655.666 417.5 655.5 C 417.5 649.5 417.5 643.5 417.5 637.5 C 429.21 637.832 440.876 637.332 452.5 636 C 460.844 632.59 468.844 628.59 476.5 624 C 484.194 616.065 491.028 607.565 497 598.5 C 502.008 595.439 506.508 596.106 510.5 600.5 C 511.905 603.213 513.405 605.879 515 608.5 C 520.533 613.698 525.7 619.198 530.5 625 C 536.764 628.258 543.098 631.425 549.5 634.5 C 554.305 635.296 558.971 636.296 563.5 637.5 Z" stroke-linecap="round" />
</g>
		<g transform="matrix(1 0 0 1 434.94 84)"  >
<path style="stroke: none; stroke-width: 1; stroke-dasharray: none; stroke-linecap: butt; stroke-dashoffset: 0; stroke-linejoin: miter; stroke-miterlimit: 4; fill: rgb(84,83,83); fill-rule: evenodd; opacity: 1;"  transform=" translate(-946.94, -596)" d="M 871.5 587.5 C 871.5 592.833 871.5 598.167 871.5 603.5 C 922.167 603.5 972.833 603.5 1023.5 603.5 C 1023.5 603.833 1023.5 604.167 1023.5 604.5 C 972.5 604.5 921.5 604.5 870.5 604.5 C 870.178 598.642 870.511 592.975 871.5 587.5 Z" stroke-linecap="round" />
</g>
		<g transform="matrix(1 0 0 1 65.06 134)"  >
<path style="stroke: none; stroke-width: 1; stroke-dasharray: none; stroke-linecap: butt; stroke-dashoffset: 0; stroke-linejoin: miter; stroke-miterlimit: 4; fill: rgb(137,136,135); fill-rule: evenodd; opacity: 1;"  transform=" translate(-577.06, -646)" d="M 563.5 637.5 C 572.5 637.5 581.5 637.5 590.5 637.5 C 590.822 643.358 590.489 649.025 589.5 654.5 C 589.5 649.167 589.5 643.833 589.5 638.5 C 580.651 638.826 571.984 638.493 563.5 637.5 Z" stroke-linecap="round" />
</g>
		<g transform="matrix(1 0 0 1 -296.51 315.65)"  >
<path style="stroke: none; stroke-width: 1; stroke-dasharray: none; stroke-linecap: butt; stroke-dashoffset: 0; stroke-linejoin: miter; stroke-miterlimit: 4; fill: rgb(3,3,3); fill-rule: evenodd; opacity: 1;"  transform=" translate(-215.49, -827.64)" d="M 55.5 845.5 C 55.3113 830.483 55.6446 815.483 56.5 800.5 C 57.7183 794.363 58.5516 788.029 59 781.5 C 64.4329 758.687 73.2662 737.353 85.5 717.5 C 88.8886 714.4 92.0553 711.067 95 707.5 C 95.692 703.138 98.192 700.304 102.5 699 C 106.203 695.633 109.536 691.966 112.5 688 C 119.382 684.448 125.716 680.115 131.5 675 C 141.388 669.898 151.721 665.565 162.5 662 C 200.321 651.733 237.988 652.4 275.5 664 C 281.989 667.296 288.656 670.296 295.5 673 C 301.876 677.696 308.543 682.03 315.5 686 C 321.364 692.199 327.531 698.032 334 703.5 C 338.423 710.011 343.089 716.345 348 722.5 C 371.914 764.269 380.247 809.269 373 857.5 C 370.366 874.379 366.366 890.713 361 906.5 C 357.435 912.076 354.768 918.076 353 924.5 C 348.723 931.379 343.723 937.712 338 943.5 C 337.667 944.833 337.333 946.167 337 947.5 C 310.776 977.195 277.943 994.528 238.5 999.5 C 223.178 1000.67 207.844 1000.83 192.5 1000 C 124.332 989.505 80.8323 951.005 62 884.5 C 59.1626 871.476 56.9959 858.476 55.5 845.5 Z" stroke-linecap="round" />
</g>
		<g transform="matrix(1 0 0 1 298.49 317.5)"  >
<path style="stroke: none; stroke-width: 1; stroke-dasharray: none; stroke-linecap: butt; stroke-dashoffset: 0; stroke-linejoin: miter; stroke-miterlimit: 4; fill: rgb(3,2,2); fill-rule: evenodd; opacity: 1;"  transform=" translate(-810.49, -829.5)" d="M 785.5 665.5 C 800.854 666.765 816.188 668.265 831.5 670 C 841.258 672.854 850.924 675.854 860.5 679 C 912.77 701.597 942.603 741.097 950 797.5 C 956.741 842.679 949.741 885.346 929 925.5 C 922.792 935.05 915.792 944.05 908 952.5 C 897.778 960.388 887.278 967.888 876.5 975 C 861.342 981.107 845.675 985.774 829.5 989 C 814.552 990.987 799.552 992.487 784.5 993.5 C 745.847 992.524 707.181 992.191 668.5 992.5 C 668.5 883.833 668.5 775.167 668.5 666.5 C 707.67 666.832 746.67 666.499 785.5 665.5 Z" stroke-linecap="round" />
</g>
		<g transform="matrix(1 0 0 1 -297.43 315.89)"  >
<path style="stroke: none; stroke-width: 1; stroke-dasharray: none; stroke-linecap: butt; stroke-dashoffset: 0; stroke-linejoin: miter; stroke-miterlimit: 4; fill: rgb(251,251,251); fill-rule: evenodd; opacity: 1;"  transform=" translate(-214.57, -827.89)" d="M 208.5 716.5 C 240.421 714.213 265.254 726.213 283 752.5 C 291.387 767.335 296.387 783.335 298 800.5 C 299.324 824.283 298.324 847.95 295 871.5 C 292.015 883.181 287.682 894.181 282 904.5 C 276.365 910.03 271.199 915.863 266.5 922 C 239.269 941.377 209.936 944.71 178.5 932 C 174.971 928.067 170.637 925.4 165.5 924 C 151.805 911.118 142.305 895.618 137 877.5 C 129.154 846.074 128.488 814.408 135 782.5 C 138.393 771.998 142.393 761.665 147 751.5 C 151.923 744.822 157.423 738.655 163.5 733 C 169.299 729.932 174.966 726.599 180.5 723 C 185.217 721.56 189.883 720.06 194.5 718.5 C 199.317 717.833 203.983 717.166 208.5 716.5 Z" stroke-linecap="round" />
</g>
		<g transform="matrix(1 0 0 1 298.67 318)"  >
<path style="stroke: none; stroke-width: 1; stroke-dasharray: none; stroke-linecap: butt; stroke-dashoffset: 0; stroke-linejoin: miter; stroke-miterlimit: 4; fill: rgb(252,252,252); fill-rule: evenodd; opacity: 1;"  transform=" translate(-810.67, -830)" d="M 807.5 727.5 C 821.676 729.094 835.009 733.261 847.5 740 C 868.715 758.6 880.215 782.1 882 810.5 C 884.146 833.909 882.146 856.909 876 879.5 C 864.255 913.405 840.421 931.072 804.5 932.5 C 782.5 932.5 760.5 932.5 738.5 932.5 C 738.5 864.167 738.5 795.833 738.5 727.5 C 761.5 727.5 784.5 727.5 807.5 727.5 Z" stroke-linecap="round" />
</g>
		<g transform="matrix(1 0 0 1 214.44 317)"  >
<path style="stroke: none; stroke-width: 1; stroke-dasharray: none; stroke-linecap: butt; stroke-dashoffset: 0; stroke-linejoin: miter; stroke-miterlimit: 4; fill: rgb(118,118,117); fill-rule: evenodd; opacity: 1;"  transform=" translate(-726.44, -829)" d="M 785.5 665.5 C 746.67 666.499 707.67 666.832 668.5 666.5 C 668.5 775.167 668.5 883.833 668.5 992.5 C 667.501 883.668 667.167 774.668 667.5 665.5 C 706.833 665.5 746.167 665.5 785.5 665.5 Z" stroke-linecap="round" />
</g>
		<g transform="matrix(1 0 0 1 -456.52 311)"  >
<path style="stroke: none; stroke-width: 1; stroke-dasharray: none; stroke-linecap: butt; stroke-dashoffset: 0; stroke-linejoin: miter; stroke-miterlimit: 4; fill: rgb(103,103,103); fill-rule: evenodd; opacity: 1;"  transform=" translate(-55.48, -823)" d="M 56.5 800.5 C 55.6446 815.483 55.3113 830.483 55.5 845.5 C 54.8338 839.342 54.5004 833.009 54.5 826.5 C 54.2875 817.609 54.9541 808.942 56.5 800.5 Z" stroke-linecap="round" />
</g>
		<g transform="matrix(1 0 0 1 260.5 318)"  >
<path style="stroke: none; stroke-width: 1; stroke-dasharray: none; stroke-linecap: butt; stroke-dashoffset: 0; stroke-linejoin: miter; stroke-miterlimit: 4; fill: rgb(122,122,122); fill-rule: evenodd; opacity: 1;"  transform=" translate(-772.5, -830)" d="M 807.5 727.5 C 784.5 727.5 761.5 727.5 738.5 727.5 C 738.5 795.833 738.5 864.167 738.5 932.5 C 760.5 932.5 782.5 932.5 804.5 932.5 C 782.34 933.497 760.006 933.831 737.5 933.5 C 737.5 864.5 737.5 795.5 737.5 726.5 C 761.006 726.169 784.339 726.502 807.5 727.5 Z" stroke-linecap="round" />
</g>
		<g transform="matrix(1 0 0 1 439.5 503.5)"  >
<path style="stroke: none; stroke-width: 1; stroke-dasharray: none; stroke-linecap: butt; stroke-dashoffset: 0; stroke-linejoin: miter; stroke-miterlimit: 4; fill: rgb(254,255,101); fill-rule: evenodd; opacity: 1;"  transform=" translate(-951.5, -1015.5)" d="M 959.5 1007.5 C 959.5 1012.83 959.5 1018.17 959.5 1023.5 C 954.167 1023.5 948.833 1023.5 943.5 1023.5 C 943.5 1018.17 943.5 1012.83 943.5 1007.5 C 948.833 1007.5 954.167 1007.5 959.5 1007.5 Z" stroke-linecap="round" />
</g>
		<g transform="matrix(1 0 0 1 455.5 503.5)"  >
<path style="stroke: none; stroke-width: 1; stroke-dasharray: none; stroke-linecap: butt; stroke-dashoffset: 0; stroke-linejoin: miter; stroke-miterlimit: 4; fill: rgb(66,255,254); fill-rule: evenodd; opacity: 1;"  transform=" translate(-967.5, -1015.5)" d="M 959.5 1007.5 C 964.833 1007.5 970.167 1007.5 975.5 1007.5 C 975.5 1012.83 975.5 1018.17 975.5 1023.5 C 970.167 1023.5 964.833 1023.5 959.5 1023.5 C 959.5 1018.17 959.5 1012.83 959.5 1007.5 Z" stroke-linecap="round" />
</g>
		<g transform="matrix(1 0 0 1 471.5 503.5)"  >
<path style="stroke: none; stroke-width: 1; stroke-dasharray: none; stroke-linecap: butt; stroke-dashoffset: 0; stroke-linejoin: miter; stroke-miterlimit: 4; fill: rgb(81,218,75); fill-rule: evenodd; opacity: 1;"  transform=" translate(-983.5, -1015.5)" d="M 975.5 1007.5 C 980.833 1007.5 986.167 1007.5 991.5 1007.5 C 991.5 1012.83 991.5 1018.17 991.5 1023.5 C 986.167 1023.5 980.833 1023.5 975.5 1023.5 C 975.5 1018.17 975.5 1012.83 975.5 1007.5 Z" stroke-linecap="round" />
</g>
		<g transform="matrix(1 0 0 1 487.5 503.5)"  >
<path style="stroke: none; stroke-width: 1; stroke-dasharray: none; stroke-linecap: butt; stroke-dashoffset: 0; stroke-linejoin: miter; stroke-miterlimit: 4; fill: rgb(254,110,59); fill-rule: evenodd; opacity: 1;"  transform=" translate(-999.5, -1015.5)" d="M 991.5 1007.5 C 996.833 1007.5 1002.17 1007.5 1007.5 1007.5 C 1007.5 1012.83 1007.5 1018.17 1007.5 1023.5 C 1002.17 1023.5 996.833 1023.5 991.5 1023.5 C 991.5 1018.17 991.5 1012.83 991.5 1007.5 Z" stroke-linecap="round" />
</g>
		<g transform="matrix(1 0 0 1 503.5 503.5)"  >
<path style="stroke: none; stroke-width: 1; stroke-dasharray: none; stroke-linecap: butt; stroke-dashoffset: 0; stroke-linejoin: miter; stroke-miterlimit: 4; fill: rgb(60,69,255); fill-rule: evenodd; opacity: 1;"  transform=" translate(-1015.5, -1015.5)" d="M 1007.5 1007.5 C 1012.83 1007.5 1018.17 1007.5 1023.5 1007.5 C 1023.5 1012.83 1023.5 1018.17 1023.5 1023.5 C 1018.17 1023.5 1012.83 1023.5 1007.5 1023.5 C 1007.5 1018.17 1007.5 1012.83 1007.5 1007.5 Z" stroke-linecap="round" />
</g>
</g>
</g>
</svg>