<?xml version="1.0" standalone="no"?>
<!DOCTYPE svg PUBLIC "-//W3C//DTD SVG 20010904//EN"
 "http://www.w3.org/TR/2001/REC-SVG-20010904/DTD/svg10.dtd">
<svg version="1.0" xmlns="http://www.w3.org/2000/svg"
 width="700.000000pt" height="700.000000pt" viewBox="0 0 700.000000 700.000000"
 preserveAspectRatio="xMidYMid meet">
<metadata>
Created by potrace 1.14, written by Peter Selinger 2001-2017
</metadata>
<g transform="translate(0.000000,700.000000) scale(0.100000,-0.100000)"
fill="#000000" stroke="none">
<path d="M794 5543 c0 -578 3 -830 10 -835 8 -5 8 -8 0 -8 -13 0 -13 -1078 0
-1099 6 -9 5 -12 -1 -8 -6 4 -10 -4 -10 -18 -1 -14 4 -22 10 -18 6 4 7 1 1 -8
-14 -21 -13 -2907 0 -2912 10 -3 5700 -1 5719 2 4 0 7 527 7 1170 0 926 -3
1170 -12 1174 -10 4 -10 6 -1 6 10 1 12 374 13 1691 l0 1690 -2868 0 -2868 0
0 -827z"/>
</g>
</svg>
